# xmcd
#
# Track frame offsets:
#	150
#	25573
#	39278
#	54302
#	78493
#	100580
#	128593
#	165322
#	178506
#	191909
#	209862
#	231919
#	250340
#	267979
#
# Disc length: 3944 seconds
#
# Revision: 0
# Processed by: cddbd v1.4PL0 Copyright (c) Steve Scherf et al.
# Submitted via: audiograbber 1.81.03
#
DISCID=b40f660e
DTITLE=Stevie Ray Vaughan - Live - Steamboat 1874, Austin, TX - April 1, 1980 -
DTITLE="Don't Mess With Texas"
DYEAR=1980
DGENRE=
TTITLE0=In The Open
TTITLE1=Slide Thing
TTITLE2=They Call Me Guitar Hurricane
TTITLE3=The Sky is Crying
TTITLE4=I'm Leaving You (Commit A Crime)
TTITLE5=All Your Love I Miss Loving
TTITLE6=Tin Pan Alley
TTITLE7=Love's Struck Baby
TTITLE8=Tell Me
TTITLE9=Shake For Me
TTITLE10=Little Wing
TTITLE11=Tore Down
TTITLE12=I'm Crying
TTITLE13=Texas Flood (fades out)
EXTD=
EXTT0=
EXTT1=
EXTT2=
EXTT3=
EXTT4=
EXTT5=
EXTT6=
EXTT7=
EXTT8=
EXTT9=
EXTT10=
EXTT11=
EXTT12=
EXTT13=
PLAYORDER=
